# xmcd
#
# Track frame offsets: 
#        150
#        12309
#        26827
#        41237
#        42011
#        57093
#        69371
#        85018
#        85914
#        101748
#        118235
#        133193
#        134469
#        150907
#        151958
#        169089
#        184561
#        205657
#        206701
#
# Disc length: 2919 seconds
#
# Revision: 1
# Processed by: cddbd v1.5.2PL0 Copyright (c) Steve Scherf et al.
# Submitted via: ExactAudioCopy v1.0b3
#
DISCID=fd0b6513
DTITLE=Various Artist - Hillcrest 92
DYEAR=2020
DGENRE=Country
TTITLE0=Brandon McPhee - I'm Gonna Find A Way
TTITLE1=Billy Keeble - Are You Getting Over Me
TTITLE2=Jimmy Raschel - Glory Bound
TTITLE3=Clelia Adams - Liner by Clelia Adams
TTITLE4=Clelia Adams - Looking Forward Looking Back
TTITLE5=Andy Martin - You're Still On My Mind
TTITLE6=David MacLachlan - Memories Of You
TTITLE7=Alyson Greene - Liner by Alyson Greene
TTITLE8=Alyson Greene - I'm Just Not Over You
TTITLE9=Otis C Truax - Could've Been Me
TTITLE10=Joe Wade Smith - Something I Can Cry To
TTITLE11=Brayden Ryle and Jasmine Sean McDonald - Liner by Brayden Ryle
TTITLE12=Brayden Ryle and Jasmine Sean McDonald - Shades Of You
TTITLE13=Joe Diamond - Radio Liner by Joe Diamond
TTITLE14=Joe Diamond - Old Violin
TTITLE15=Erin York - Rooster Crows At Dawn
TTITLE16=Jerry Collins - Old Man And The Drunk
TTITLE17=Ross Allen - Radio Liner by Ross Allen
TTITLE18=Ross Allen - Sure Ain't Nashville
EXTD=
EXTT0=
EXTT1=
EXTT2=
EXTT3=
EXTT4=
EXTT5=
EXTT6=
EXTT7=
EXTT8=
EXTT9=
EXTT10=
EXTT11=
EXTT12=
EXTT13=
EXTT14=
EXTT15=
EXTT16=
EXTT17=
EXTT18=
PLAYORDER=
